HIERARCHY
ROOT Hips
{
    OFFSET 0.0 0.0 0.0
    CHANNELS 6 Xposition Yposition Zposition Zrotation Xrotation Yrotation
    JOINT LeftHipJoint
    {
        OFFSET 0.1 0.0 0.0
        CHANNELS 3 Zrotation Xrotation Yrotation
        JOINT LeftUpLeg
        {
            OFFSET 0.059923551976680756 0.0 0.0
            CHANNELS 3 Zrotation Xrotation Yrotation
            JOINT LeftLeg
            {
                OFFSET 0.0 0.0 -0.22078296542167664
                CHANNELS 3 Zrotation Xrotation Yrotation
                JOINT LeftFoot
                {
                    OFFSET 0.0 0.0 -0.207933247089386
                    CHANNELS 3 Zrotation Xrotation Yrotation
                    End Site
                    {
                        OFFSET 0.0 -0.1 0.0
                    }
                }
            }
        }
    }
    JOINT LowerBack
    {
        OFFSET 0.0 0.0 0.1
        CHANNELS 3 Zrotation Xrotation Yrotation
        JOINT Spine
        {
            OFFSET 0.0 0.0 0.14309698343276978
            CHANNELS 3 Zrotation Xrotation Yrotation
            JOINT Spine1
            {
                OFFSET 0.0 0.0 0.14888370037078857
                CHANNELS 3 Zrotation Xrotation Yrotation
                JOINT LeftShoulder
                {
                    OFFSET 0.1 0.0 0.0
                    CHANNELS 3 Zrotation Xrotation Yrotation
                    JOINT LeftArm
                    {
                        OFFSET 0.08645652234554291 0.0 0.0
                        CHANNELS 3 Zrotation Xrotation Yrotation
                        JOINT LeftForeArm
                        {
                            OFFSET 0.14621427655220032 0.0 0.0
                            CHANNELS 3 Zrotation Xrotation Yrotation
                            JOINT LeftHand
                            {
                                OFFSET 0.1282004714012146 0.0 0.0
                                CHANNELS 3 Zrotation Xrotation Yrotation
                                End Site
                                {
                                    OFFSET 0.1 0.0 0.0
                                }
                            }
                        }
                    }
                }
                JOINT Neck
                {
                    OFFSET 0.0 0.0 0.1
                    CHANNELS 3 Zrotation Xrotation Yrotation
                    JOINT Neck1
                    {
                        OFFSET 0.0 0.0 0.07326579838991165
                        CHANNELS 3 Zrotation Xrotation Yrotation
                        End Site
                        {
                            OFFSET 0.0 0.0 0.06756682693958282
                        }
                    }
                }
                JOINT RightShoulder
                {
                    OFFSET -0.1 0.0 0.0
                    CHANNELS 3 Zrotation Xrotation Yrotation
                    JOINT RightArm
                    {
                        OFFSET -0.08645652234554291 0.0 0.0
                        CHANNELS 3 Zrotation Xrotation Yrotation
                        JOINT RightForeArm
                        {
                            OFFSET -0.14621427655220032 0.0 0.0
                            CHANNELS 3 Zrotation Xrotation Yrotation
                            JOINT RightHand
                            {
                                OFFSET -0.1282004714012146 0.0 0.0
                                CHANNELS 3 Zrotation Xrotation Yrotation
                                End Site
                                {
                                    OFFSET -0.1 0.0 0.0
                                }
                            }
                        }
                    }
                }
            }
        }
    }
    JOINT RightHipJoint
    {
        OFFSET -0.1 0.0 0.0
        CHANNELS 3 Zrotation Xrotation Yrotation
        JOINT RightUpLeg
        {
            OFFSET -0.059923551976680756 0.0 0.0
            CHANNELS 3 Zrotation Xrotation Yrotation
            JOINT RightLeg
            {
                OFFSET 0.0 0.0 -0.22078296542167664
                CHANNELS 3 Zrotation Xrotation Yrotation
                JOINT RightFoot
                {
                    OFFSET 0.0 0.0 -0.207933247089386
                    CHANNELS 3 Zrotation Xrotation Yrotation
                    End Site
                    {
                        OFFSET 0.0 -0.1 0.0
                    }
                }
            }
        }
    }
}
MOTION
Frames: 8
Frame Time: 0.03333333333333333
0.22882014513015747 -0.04276266694068909 0.0 -93.34488771364526 18.432349089650703 96.15487828071957 -1.7655625192200634e-31 6.3611093629270335e-15 3.1805546814635168e-15 -9.347697036266574 -6.907335816286007 7.986924513427481 0.9168845444667508 4.17782973670049 -1.3497132988538794 -6.361109362927033e-15 6.361109362927031e-15 9.541664044390547e-15 -1.7655625192200634e-31 6.3611093629270335e-15 3.1805546814635168e-15 0.4559625086631988 4.046928251523115 -7.969666520270831 2.7847715700406863 -7.524794028426647e-07 -3.8427970311784866e-06 -6.3611093629270335e-15 0.0 0.0 -49.652338448796826 -15.06943378103113 77.3624123010312 -20.082377408661454 -2.1709918151828567e-06 1.0120858052274358e-06 -1.9878466759146976e-15 -5.517382872562698e-32 3.180554681463516e-15 -6.3611093629270335e-15 0.0 0.0 7.848999929844014 19.522015103099978 46.001510707719554 -6.3611093629270335e-15 0.0 0.0 9.464758846243992 -4.499703782133353 -71.5264048419793 24.037523602121293 -1.1349054266922583e-07 -5.60432777363718e-07 6.3611093629270335e-15 1.7655625192200634e-31 3.1805546814635168e-15 -1.7655625192200634e-31 6.3611093629270335e-15 3.1805546814635168e-15 6.284597770330385 -6.368356206050387 2.2909144168349247 2.12341071672437 11.488799901765228 -10.17290978216367 0.0 6.3611093629270335e-15 0.0
0.22069479525089264 -0.02745603770017624 0.0016126013360917568 -92.11112541994542 15.366459969214112 97.06551466608943 3.1805546814635164e-15 -3.1805546814635164e-15 3.1805546814635164e-15 -10.759182105968144 -5.3807395431797636 6.496048447085475 0.6870666392078704 3.319815902135047 0.3753375073854969 -3.1805546814635168e-15 -3.1805546814635168e-15 -3.1805546814635168e-15 3.1805546814635164e-15 -3.1805546814635164e-15 3.1805546814635164e-15 0.6095591896150914 4.148076027987734 -8.471566613164422 3.154767738043542 -3.2704734549624064e-06 1.8719174279757134e-06 0.0 0.0 0.0 -44.3545396661927 -16.27124200776626 78.33317533974856 -17.858136507316377 4.825161088888414e-07 1.016327563000491e-06 -3.1805546814635164e-15 4.4139062980501586e-32 -1.5902773407317582e-15 0.0 0.0 0.0 -0.14749477068204112 15.237110166486056 45.32244742812528 0.0 0.0 0.0 9.272151835100779 -6.0898825485957815 -72.572706437367 24.841712124595904 4.937406445838362e-06 -4.2410075630888796e-07 0.0 0.0 -3.1805546814635168e-15 3.1805546814635164e-15 -3.1805546814635164e-15 3.1805546814635164e-15 8.024279853192784 -4.491339705990104 0.9225677977599048 2.4160754888604927 11.398801795732334 -10.303188613333731 3.1805546814635168e-15 -1.7655625192200634e-31 -6.3611093629270335e-15
0.2111935317516327 -0.021705012768507004 0.0020969542674720287 -90.60588633339718 12.337662334574944 97.6263536706113 3.1805546814635168e-15 6.3611093629270335e-15 3.1805546814635168e-15 -10.140475445944952 -3.3398441420692375 6.020667501668954 0.42429848866396896 1.9864202356946978 -0.03775527953062335 -3.1805546814635168e-15 -1.7655625192200634e-31 6.3611093629270335e-15 3.1805546814635168e-15 6.3611093629270335e-15 3.1805546814635168e-15 0.6352536072234989 3.9606720734028413 -9.034390662917977 1.0376474430461051 -3.3218670979848883e-06 9.057813090488639e-07 0.0 0.0 0.0 -39.269530736567546 -15.974095322779604 77.92568151104938 -15.8267022530737 -2.7155887146682593e-06 1.3834497452738541e-06 -7.951386703658792e-16 3.1805546814635168e-15 1.5902773407317584e-15 0.0 0.0 0.0 -8.521312377324959 7.867493675651393 44.63768057309672 0.0 0.0 0.0 21.78818431181674 -6.071074048411543 -70.39915002003954 24.732961281259243 7.335916424701358e-07 -1.6423709913985915e-06 0.0 0.0 1.5902773407317584e-15 3.1805546814635168e-15 6.3611093629270335e-15 3.1805546814635168e-15 8.34769809204499 -2.4623213093069873 -0.5406973604063596 2.1693527290061057 10.932555012331223 -10.016249992956817 3.180554681463516e-15 1.7655625192200634e-31 6.361109362927032e-15
0.20302550494670868 -0.006910468451678753 0.0012960571330040693 -89.05622019287061 8.062496552063621 96.984016930568 0.0 0.0 3.1805546814635164e-15 -10.945286718922492 -2.2736586346936165 4.896798993452743 0.21626655806571218 1.603587399355907 3.069460303786222 3.1805546814635168e-15 0.0 0.0 0.0 0.0 3.1805546814635164e-15 0.6971027548992759 4.485568111080742 -7.868525775625106 -1.8380410730247876 -9.768749441493413e-07 4.687490020733848e-07 0.0 0.0 0.0 -31.17808947453598 -15.562397409770593 77.13580808131539 -15.13141736993149 -7.839936583926117e-07 4.777775710616701e-07 -3.9756933518293955e-16 3.1805546814635168e-15 -1.5902773407317584e-15 0.0 0.0 0.0 -13.432729686571896 -0.7149521549661104 40.98931350494382 0.0 0.0 0.0 34.32726426871614 -7.3307835255679485 -68.83550462445085 24.346854760849514 -1.2007428582618762e-06 7.970017081708374e-07 0.0 0.0 -3.1805546814635164e-15 0.0 0.0 3.1805546814635164e-15 9.578222295271246 -0.7259651977034134 -1.599069348554555 2.5432251726935844 11.556265672908223 -7.678104314678818 -3.531125038440127e-31 6.361109362927033e-15 6.361109362927033e-15
0.19644790887832642 -0.003148120827972889 0.002290082396939397 -88.0801346886623 5.745291353859481 97.52179563173863 3.1805546814635168e-15 3.1805546814635168e-15 -6.3611093629270335e-15 -9.74165290085735 -1.4334460242211011 5.974489091746823 0.266881881243512 1.3916147843877213 -0.008288395402621183 -6.3611093629270335e-15 -3.531125038440127e-31 6.3611093629270335e-15 3.1805546814635168e-15 3.1805546814635168e-15 -6.3611093629270335e-15 0.6866117442729235 4.1127577884008755 -8.201522674601804 -1.921420408577636 -8.64026720309963e-08 -1.9975135228450903e-06 -6.3611093629270335e-15 -9.54166404439055e-15 -5.29668755766019e-31 -32.41030317458725 -13.307839644177237 76.4325561326179 -14.949965408742656 7.336000888058765e-07 -1.5381778815676638e-06 -2.7829853462805764e-15 -3.862168010793889e-32 1.590277340731758e-15 -6.3611093629270335e-15 -9.54166404439055e-15 -5.29668755766019e-31 -13.430481448760384 0.20803457571375586 40.73890410627993 -6.3611093629270335e-15 -9.54166404439055e-15 -5.29668755766019e-31 41.2061820434406 -4.687807867267764 -68.15223380961596 25.169655718855516 -4.035536318422124e-06 1.2329274761362544e-06 6.361109362927033e-15 -6.361109362927033e-15 3.531125038440127e-31 3.1805546814635168e-15 3.1805546814635168e-15 -6.3611093629270335e-15 9.04136684772286 -0.02944045180603889 -2.412589735946272 2.5444300797759922 12.837678159625003 -7.053869746243688 3.180554681463516e-15 3.180554681463516e-15 6.361109362927032e-15
0.19109447300434113 0.01113838329911232 0.0012413456570357084 -87.05347699348381 2.235776851303586 97.14932666502533 0.0 0.0 0.0 -11.26940425733055 -1.4232924587119957 6.559726071180631 0.27278609890461236 1.6938475481119222 -0.08578579538607588 0.0 0.0 6.3611093629270335e-15 0.0 0.0 0.0 0.5809559048951257 3.792180356047274 -6.878246452453318 -1.1048351237013165 3.4988116121402835e-06 -1.0009559975935748e-06 -3.1805546814635168e-15 6.3611093629270335e-15 1.7655625192200634e-31 -34.79630053654011 -9.953340200981682 75.66669648670256 -15.727901321131764 6.326056945231171e-06 -1.7493412091208826e-06 -1.5902773407317584e-15 -4.4139062980501586e-32 3.1805546814635168e-15 -3.1805546814635168e-15 6.3611093629270335e-15 1.7655625192200634e-31 -6.606541299050708 8.927397526970074 42.39532104725162 -3.1805546814635168e-15 6.3611093629270335e-15 1.7655625192200634e-31 46.69875475741534 -0.8833378102896239 -68.37855895747639 27.72626026126975 1.553794290569962e-06 -5.638264803915725e-07 -6.3611093629270335e-15 -1.7655625192200634e-31 3.1805546814635168e-15 0.0 0.0 0.0 10.495307864481232 0.27219451508869164 -2.37029545676214 3.1896251123049515 15.209361637325253 -5.9244824297954315 0.0 0.0 0.0
0.18408004939556122 0.009267468005418777 0.0016095463652163744 -86.32798837861229 -0.3769564418493859 97.68524431135559 6.3611093629270335e-15 3.1805546814635168e-15 3.1805546814635168e-15 -10.04889906537466 -1.1646547541679761 8.45498279300136 0.423376399379628 1.8328142860834666 -4.88457911965339 3.1805546814635168e-15 -8.827812596100317e-32 -3.1805546814635168e-15 6.3611093629270335e-15 3.1805546814635168e-15 3.1805546814635168e-15 0.43250625008652943 2.7591811509261106 -6.950764420878171 -6.164990984630861 -5.267279091423554e-06 -2.2126349942590937e-06 3.1805546814635168e-15 0.0 0.0 -29.811339012739367 -6.39072268359989 76.79883616523604 -16.630556023343814 3.7111936797686652e-06 -4.009845889824719e-07 -3.1805546814635168e-15 0.0 0.0 3.1805546814635168e-15 0.0 0.0 2.4048720647235937 15.552688571133668 43.966584981576545 3.1805546814635168e-15 0.0 0.0 58.74007918355656 1.1888543294767655 -68.36981236536877 26.47385241516053 3.6148648314699414e-07 -1.0925763471305572e-06 6.361109362927033e-15 1.5902773407317584e-15 3.1805546814635164e-15 6.3611093629270335e-15 3.1805546814635168e-15 3.1805546814635168e-15 9.5895895073316 0.2314691746820219 -3.1478281470135596 3.0593498467209885 17.52560481378937 -4.062857015031219 3.1805546814635168e-15 -3.1805546814635168e-15 6.3611093629270335e-15
0.1791372001171112 0.005444503389298916 0.0013113480526953936 -84.99105108638854 -3.296596282999478 97.69505126985563 -3.1805546814635176e-15 1.272221872585407e-14 3.531125038440127e-31 -8.916700594924395 -1.2950978063617757 9.490735668028208 0.7164383455986845 2.755222826403712 -6.976684518910828 3.1805546814635168e-15 0.0 0.0 -3.1805546814635176e-15 1.272221872585407e-14 3.531125038440127e-31 0.6275354847615898 4.263086362442377 -7.4460553934920215 -8.429124722599354 -9.023010808278463e-07 7.252954382148633e-07 -1.7655625192200634e-31 -6.3611093629270335e-15 -3.1805546814635168e-15 -26.70364353910198 -3.357067417618321 77.40867057446418 -19.46852479355599 -1.432456183554991e-06 2.7372612132380784e-06 2.385416011097637e-15 0.0 0.0 -1.7655625192200634e-31 -6.3611093629270335e-15 -3.1805546814635168e-15 15.742352714164404 14.511466759993638 42.621960464935455 -1.7655625192200634e-31 -6.3611093629270335e-15 -3.1805546814635168e-15 68.43871005178616 3.1938776774085693 -68.15241400581922 25.668172205472867 4.987491313868026e-06 1.2464985396477612e-06 6.361109362927032e-15 0.0 0.0 -3.1805546814635176e-15 1.272221872585407e-14 3.531125038440127e-31 8.739353121884326 1.0470886873888348 -3.7174511387946922 2.616736315416184 18.902243100741874 -0.602572452025607 0.0 9.54166404439055e-15 0.0
